<svg width="28" height="19" viewBox="0 0 28 19" fill="none" xmlns="http://www.w3.org/2000/svg">
<path d="M13.75 0C7.5 0 2.1625 3.8875 0 9.375C2.1625 14.8625 7.5 18.75 13.75 18.75C20 18.75 25.3375 14.8625 27.5 9.375C25.3375 3.8875 20 0 13.75 0ZM13.75 15.625C10.3 15.625 7.5 12.825 7.5 9.375C7.5 5.925 10.3 3.125 13.75 3.125C17.2 3.125 20 5.925 20 9.375C20 12.825 17.2 15.625 13.75 15.625ZM13.75 5.625C11.675 5.625 10 7.3 10 9.375C10 11.45 11.675 13.125 13.75 13.125C15.825 13.125 17.5 11.45 17.5 9.375C17.5 7.3 15.825 5.625 13.75 5.625Z" fill="white"/>
</svg>

